<?xml version="1.0" encoding="utf-8"?>
<svg xmlns="http://www.w3.org/2000/svg" height="512pt" version="1.1" viewBox="0 0 512 512" width="512pt">
<path d="M 0.00 0.00 L 512.00 0.00 L 512.00 512.00 L 0.00 512.00 L 0.00 0.00 Z" fill="transparent" opacity="1.00" stroke="transparent" stroke-width="0.25"/>
<path d="M 167.04 125.06 C 187.32 115.05 209.43 108.57 231.94 106.34 C 247.71 106.18 263.61 105.24 279.25 107.71 C 280.98 107.95 282.62 108.54 284.25 109.15 C 274.47 108.91 264.82 106.83 255.01 107.18 C 246.71 107.51 238.31 106.57 230.10 108.07 C 226.76 108.70 223.45 109.47 220.10 109.98 C 211.57 111.10 203.34 113.58 195.08 115.89 C 187.78 117.22 181.10 120.56 174.24 123.24 C 168.51 125.51 164.09 130.20 158.13 132.01 C 157.61 132.10 156.58 132.28 156.07 132.37 C 158.48 128.45 163.37 127.44 167.04 125.06 Z" fill="#96cee7" opacity="1.00" stroke="#96cee7" stroke-width="0.25"/>
<path d="M 230.10 108.07 C 238.31 106.57 246.71 107.51 255.01 107.18 C 264.82 106.83 274.47 108.91 284.25 109.15 C 289.82 109.33 295.02 111.49 300.40 112.72 C 305.03 113.81 309.58 115.21 314.00 116.99 C 322.97 120.59 332.20 123.66 340.69 128.36 C 349.92 133.61 359.19 138.88 367.54 145.49 C 370.36 147.39 372.74 150.15 376.01 151.26 C 378.20 151.24 378.89 148.98 379.71 147.39 C 382.12 146.93 384.57 146.38 387.03 146.83 C 397.69 148.57 408.27 150.93 419.03 152.01 C 423.96 152.67 428.14 149.40 432.32 147.35 C 437.85 144.03 443.88 141.68 449.40 138.37 C 457.87 132.17 468.93 131.23 479.11 131.45 C 478.27 133.47 476.87 135.17 475.30 136.68 L 474.78 135.93 C 474.34 135.30 473.47 134.05 473.03 133.42 C 470.75 133.57 468.47 133.71 466.20 134.00 C 461.55 134.38 456.82 135.33 452.85 137.91 C 445.34 142.67 437.11 146.10 429.38 150.48 C 425.90 152.53 421.90 153.59 417.86 153.33 C 413.89 152.87 409.93 152.36 406.01 151.68 C 400.60 150.78 395.19 149.92 389.82 148.86 C 384.16 146.71 379.74 151.84 374.31 152.38 C 366.55 146.48 358.82 140.48 350.33 135.64 C 342.94 130.89 335.23 126.62 327.04 123.42 C 314.07 118.19 300.88 113.17 286.97 111.13 C 283.41 110.49 279.86 109.77 276.24 109.52 C 270.83 108.98 265.47 107.89 260.02 107.68 C 253.62 107.41 247.22 107.71 240.83 107.76 C 237.25 107.68 233.66 107.69 230.10 108.07 Z" fill="#93a3b5" opacity="1.00" stroke="#93a3b5" stroke-width="0.25"/>
<path d="M 230.10 108.07 C 233.66 107.69 237.25 107.68 240.83 107.76 C 242.12 108.51 243.40 109.32 244.68 110.12 C 242.27 114.19 239.78 118.21 237.11 122.12 C 234.36 125.97 233.90 131.07 230.51 134.51 C 227.42 137.85 224.98 141.69 222.57 145.52 C 216.13 154.65 210.03 164.07 205.18 174.15 C 203.15 178.15 202.23 182.56 201.91 187.01 C 201.92 190.05 199.63 192.20 197.94 194.45 C 201.54 194.65 205.04 193.67 208.62 193.46 C 208.49 194.10 208.24 195.39 208.12 196.03 C 204.44 198.32 201.42 201.46 198.14 204.24 C 193.27 201.34 188.59 198.12 183.49 195.61 C 181.99 194.77 180.33 194.09 179.14 192.81 C 177.30 189.66 177.84 185.67 179.67 182.64 C 183.18 176.50 186.84 170.31 188.47 163.34 C 189.17 159.72 191.88 157.13 194.35 154.62 C 194.53 153.02 194.55 151.38 195.06 149.84 C 196.74 147.35 199.33 145.60 200.92 143.02 C 202.60 140.32 203.42 137.05 205.75 134.78 C 207.65 132.87 209.80 131.24 211.87 129.54 C 210.00 127.44 207.48 124.85 208.83 121.79 C 211.32 116.84 216.22 113.76 220.10 109.98 C 223.45 109.47 226.76 108.70 230.10 108.07 Z" fill="#209bdb" opacity="1.00" stroke="#209bdb" stroke-width="0.25"/>
<path d="M 240.83 107.76 C 247.22 107.71 253.62 107.41 260.02 107.68 C 265.47 107.89 270.83 108.98 276.24 109.52 C 268.62 111.18 259.79 111.09 253.91 117.00 C 251.98 118.35 252.90 120.79 252.94 122.73 C 251.77 124.89 250.82 127.16 250.01 129.48 C 248.81 133.70 243.93 135.29 242.37 139.32 C 238.75 149.34 233.08 158.46 227.54 167.51 C 226.37 170.03 226.85 172.91 226.70 175.61 C 224.25 177.70 222.01 180.03 219.80 182.38 C 221.57 182.41 223.33 182.46 225.10 182.50 C 225.32 183.77 225.54 185.04 225.77 186.31 C 229.53 184.80 231.59 181.11 234.44 178.44 C 233.72 180.38 232.99 182.32 232.14 184.21 C 230.47 186.66 229.33 190.39 225.89 190.69 C 219.74 191.56 213.45 192.60 208.12 196.03 C 208.24 195.39 208.49 194.10 208.62 193.46 C 205.04 193.67 201.54 194.65 197.94 194.45 C 199.63 192.20 201.92 190.05 201.91 187.01 C 202.23 182.56 203.15 178.15 205.18 174.15 C 210.03 164.07 216.13 154.65 222.57 145.52 C 224.98 141.69 227.42 137.85 230.51 134.51 C 233.90 131.07 234.36 125.97 237.11 122.12 C 239.78 118.21 242.27 114.19 244.68 110.12 C 243.40 109.32 242.12 108.51 240.83 107.76 Z" fill="#1891d5" opacity="1.00" stroke="#1891d5" stroke-width="0.25"/>
<path d="M 195.08 115.89 C 203.34 113.58 211.57 111.10 220.10 109.98 C 216.22 113.76 211.32 116.84 208.83 121.79 C 207.48 124.85 210.00 127.44 211.87 129.54 C 209.80 131.24 207.65 132.87 205.75 134.78 C 203.42 137.05 202.60 140.32 200.92 143.02 C 199.33 145.60 196.74 147.35 195.06 149.84 C 194.55 151.38 194.53 153.02 194.35 154.62 C 191.88 157.13 189.17 159.72 188.47 163.34 C 186.84 170.31 183.18 176.50 179.67 182.64 C 177.84 185.67 177.30 189.66 179.14 192.81 C 180.33 194.09 181.99 194.77 183.49 195.61 C 188.59 198.12 193.27 201.34 198.14 204.24 C 197.83 204.48 197.20 204.97 196.89 205.21 C 192.71 203.35 188.66 201.22 184.43 199.48 C 180.43 197.76 176.41 196.03 172.23 194.80 C 165.94 192.96 158.90 193.36 153.48 189.14 C 155.86 181.63 160.15 175.00 163.95 168.19 C 165.93 161.03 168.72 154.15 171.19 147.15 C 172.25 144.17 174.64 141.99 176.14 139.27 C 177.06 136.01 176.00 132.12 178.35 129.35 C 182.91 123.77 188.43 118.81 195.08 115.89 Z" fill="#29a5e0" opacity="1.00" stroke="#29a5e0" stroke-width="0.25"/>
<path d="M 253.91 117.00 C 259.79 111.09 268.62 111.18 276.24 109.52 C 279.86 109.77 283.41 110.49 286.97 111.13 C 286.56 111.29 285.75 111.60 285.34 111.76 C 277.97 115.68 274.93 124.11 271.25 131.11 C 267.48 137.32 264.22 143.91 259.34 149.36 C 256.77 151.89 257.30 155.63 257.38 158.89 C 261.86 158.47 266.34 158.01 270.84 158.15 L 271.97 158.15 C 266.93 160.18 261.68 161.63 256.67 163.73 C 246.90 168.31 238.42 175.44 232.14 184.21 C 232.99 182.32 233.72 180.38 234.44 178.44 C 231.59 181.11 229.53 184.80 225.77 186.31 C 225.54 185.04 225.32 183.77 225.10 182.50 C 223.33 182.46 221.57 182.41 219.80 182.38 C 222.01 180.03 224.25 177.70 226.70 175.61 C 226.85 172.91 226.37 170.03 227.54 167.51 C 233.08 158.46 238.75 149.34 242.37 139.32 C 243.93 135.29 248.81 133.70 250.01 129.48 C 250.82 127.16 251.77 124.89 252.94 122.73 C 252.90 120.79 251.98 118.35 253.91 117.00 Z" fill="#0f86cf" opacity="1.00" stroke="#0f86cf" stroke-width="0.25"/>
<path d="M 286.97 111.13 C 300.88 113.17 314.07 118.19 327.04 123.42 C 326.29 124.29 325.54 125.16 324.81 126.04 C 326.16 126.54 327.52 127.05 328.88 127.55 C 326.41 129.14 323.73 130.52 321.71 132.69 C 319.70 135.14 318.76 138.29 316.68 140.69 C 313.80 143.79 309.64 145.68 307.57 149.49 C 305.95 153.20 305.60 157.30 304.77 161.23 C 303.23 160.75 301.67 160.36 300.12 159.94 C 291.02 157.05 281.37 157.34 271.97 158.15 L 270.84 158.15 C 275.74 153.47 282.69 154.23 288.89 153.86 C 291.08 153.93 292.02 151.69 293.20 150.24 C 295.19 147.26 297.78 144.76 300.10 142.05 C 302.79 138.91 303.06 134.55 305.10 131.07 C 306.29 129.71 307.79 128.69 309.21 127.60 C 309.06 126.50 308.91 125.41 308.76 124.32 C 309.50 123.42 310.24 122.51 310.99 121.61 C 303.35 116.26 293.52 116.06 285.34 111.76 C 285.75 111.60 286.56 111.29 286.97 111.13 Z" fill="#026ebf" opacity="1.00" stroke="#026ebf" stroke-width="0.25"/>
<path d="M 271.25 131.11 C 274.93 124.11 277.97 115.68 285.34 111.76 C 293.52 116.06 303.35 116.26 310.99 121.61 C 310.24 122.51 309.50 123.42 308.76 124.32 C 308.91 125.41 309.06 126.50 309.21 127.60 C 307.79 128.69 306.29 129.71 305.10 131.07 C 303.06 134.55 302.79 138.91 300.10 142.05 C 297.78 144.76 295.19 147.26 293.20 150.24 C 292.02 151.69 291.08 153.93 288.89 153.86 C 282.69 154.23 275.74 153.47 270.84 158.15 C 266.34 158.01 261.86 158.47 257.38 158.89 C 257.30 155.63 256.77 151.89 259.34 149.36 C 264.22 143.91 267.48 137.32 271.25 131.11 Z" fill="#0378c8" opacity="1.00" stroke="#0378c8" stroke-width="0.25"/>
<path d="M 174.24 123.24 C 181.10 120.56 187.78 117.22 195.08 115.89 C 188.43 118.81 182.91 123.77 178.35 129.35 C 176.00 132.12 177.06 136.01 176.14 139.27 C 174.64 141.99 172.25 144.17 171.19 147.15 C 168.72 154.15 165.93 161.03 163.95 168.19 C 160.15 175.00 155.86 181.63 153.48 189.14 C 158.90 193.36 165.94 192.96 172.23 194.80 C 161.55 194.44 150.69 193.73 140.21 196.29 C 133.91 195.69 127.47 196.13 121.80 199.18 C 121.00 197.50 120.12 195.87 119.12 194.30 C 120.25 192.28 121.79 190.34 122.10 187.99 C 121.52 184.54 119.34 181.19 120.67 177.63 C 122.12 173.15 121.25 167.51 125.18 164.18 C 136.29 153.58 146.62 142.18 158.13 132.01 C 164.09 130.20 168.51 125.51 174.24 123.24 Z" fill="#33b0e7" opacity="1.00" stroke="#33b0e7" stroke-width="0.25"/>
<path d="M 324.81 126.04 C 325.54 125.16 326.29 124.29 327.04 123.42 C 335.23 126.62 342.94 130.89 350.33 135.64 C 358.82 140.48 366.55 146.48 374.31 152.38 C 374.27 155.61 375.23 159.17 374.00 162.20 C 369.80 165.25 363.88 164.53 359.85 168.00 C 358.69 168.94 356.61 169.95 358.03 171.65 C 359.72 171.71 361.42 171.64 363.13 171.58 C 370.75 170.69 378.20 172.46 385.65 173.77 L 386.23 174.55 C 383.79 174.82 381.21 174.86 379.01 176.06 C 376.82 177.63 375.42 180.00 373.80 182.09 C 374.54 182.60 375.30 183.10 376.08 183.58 C 372.28 184.24 368.57 185.36 365.15 187.13 C 357.18 191.11 349.26 195.24 341.00 198.59 C 337.90 193.90 335.83 188.66 333.31 183.66 C 332.23 181.23 330.06 179.64 328.03 178.06 C 327.64 177.71 326.85 177.03 326.46 176.69 C 323.18 173.70 320.48 170.04 316.64 167.71 C 312.80 165.35 308.99 162.86 304.77 161.23 C 305.60 157.30 305.95 153.20 307.57 149.49 C 309.64 145.68 313.80 143.79 316.68 140.69 C 318.76 138.29 319.70 135.14 321.71 132.69 C 323.73 130.52 326.41 129.14 328.88 127.55 C 327.52 127.05 326.16 126.54 324.81 126.04 Z" fill="#0261b1" opacity="1.00" stroke="#0261b1" stroke-width="0.25"/>
<path d="M 151.19 135.11 C 152.75 134.10 154.14 132.61 156.07 132.37 C 156.58 132.28 157.61 132.10 158.13 132.01 C 146.62 142.18 136.29 153.58 125.18 164.18 C 121.25 167.51 122.12 173.15 120.67 177.63 C 119.34 181.19 121.52 184.54 122.10 187.99 C 121.79 190.34 120.25 192.28 119.12 194.30 C 120.12 195.87 121.00 197.50 121.80 199.18 C 127.47 196.13 133.91 195.69 140.21 196.29 C 130.73 200.41 120.15 203.10 112.56 210.52 C 103.88 218.70 95.63 227.75 90.78 238.80 C 87.04 244.79 85.93 251.81 84.65 258.62 C 83.92 258.72 82.46 258.92 81.73 259.01 C 81.20 258.98 80.13 258.93 79.59 258.90 C 76.88 248.56 80.82 238.17 82.30 227.97 C 84.05 220.49 86.05 213.02 88.96 205.90 C 95.45 192.39 103.73 179.79 113.15 168.15 C 120.37 160.03 128.69 153.05 136.59 145.63 C 141.18 141.75 146.27 138.54 151.19 135.11 Z" fill="#3cbbeb" opacity="1.00" stroke="#3cbbeb" stroke-width="0.25"/>
<path d="M 452.85 137.91 C 456.82 135.33 461.55 134.38 466.20 134.00 C 465.86 134.19 465.16 134.56 464.81 134.74 C 462.69 135.62 460.26 135.90 458.40 137.29 C 456.16 140.44 455.79 145.11 451.96 146.93 C 445.66 150.42 439.23 153.69 432.67 156.65 C 427.51 159.02 422.85 162.36 417.59 164.52 C 413.69 166.28 409.50 167.22 405.38 168.29 C 405.37 167.04 405.35 165.80 405.34 164.55 C 411.73 162.01 418.00 158.86 423.18 154.28 C 421.41 153.93 419.64 153.58 417.86 153.33 C 421.90 153.59 425.90 152.53 429.38 150.48 C 437.11 146.10 445.34 142.67 452.85 137.91 Z" fill="#045fba" opacity="1.00" stroke="#045fba" stroke-width="0.25"/>
<path d="M 466.20 134.00 C 468.47 133.71 470.75 133.57 473.03 133.42 C 473.47 134.05 474.34 135.30 474.78 135.93 C 468.41 142.50 463.04 150.09 455.97 155.93 C 450.16 158.84 444.53 162.09 438.63 164.81 C 438.04 163.43 436.57 162.05 437.29 160.44 C 443.78 155.65 452.46 153.07 456.66 145.67 C 458.96 141.73 461.98 138.30 464.81 134.74 C 465.16 134.56 465.86 134.19 466.20 134.00 Z" fill="#0a316e" opacity="1.00" stroke="#0a316e" stroke-width="0.25"/>
<path d="M 458.40 137.29 C 460.26 135.90 462.69 135.62 464.81 134.74 C 461.98 138.30 458.96 141.73 456.66 145.67 C 452.46 153.07 443.78 155.65 437.29 160.44 C 436.57 162.05 438.04 163.43 438.63 164.81 C 438.12 166.04 437.61 167.27 437.13 168.51 C 434.22 168.99 431.22 168.59 428.36 169.31 C 425.29 170.43 422.36 171.92 419.57 173.60 C 416.99 175.05 416.36 178.18 414.91 180.53 L 414.30 180.84 C 413.15 178.95 411.98 177.07 410.80 175.21 C 412.63 172.98 414.47 170.77 416.24 168.50 C 411.07 169.47 406.14 171.36 401.17 173.02 C 401.30 171.76 401.43 170.51 401.56 169.25 C 402.83 168.92 404.10 168.61 405.38 168.29 C 409.50 167.22 413.69 166.28 417.59 164.52 C 422.85 162.36 427.51 159.02 432.67 156.65 C 439.23 153.69 445.66 150.42 451.96 146.93 C 455.79 145.11 456.16 140.44 458.40 137.29 Z" fill="#02419c" opacity="1.00" stroke="#02419c" stroke-width="0.25"/>
<path d="M 374.31 152.38 C 379.74 151.84 384.16 146.71 389.82 148.86 C 386.59 148.26 383.47 149.24 381.50 151.92 C 383.61 153.33 385.73 154.72 387.84 156.13 C 387.25 157.11 386.65 158.10 386.03 159.06 C 385.64 159.06 384.86 159.05 384.47 159.04 C 384.93 157.89 385.38 156.74 385.84 155.60 C 382.66 154.28 379.32 155.07 376.22 156.17 C 376.23 156.74 376.27 157.88 376.29 158.45 C 378.56 158.63 380.85 158.83 383.13 159.06 C 381.52 160.53 379.91 162.00 378.17 163.32 C 374.96 164.64 371.54 165.31 368.20 166.18 C 365.41 166.77 362.61 167.29 359.85 168.00 C 363.88 164.53 369.80 165.25 374.00 162.20 C 375.23 159.17 374.27 155.61 374.31 152.38 Z" fill="#5794be" opacity="1.00" stroke="#5794be" stroke-width="0.25"/>
<path d="M 381.50 151.92 C 383.47 149.24 386.59 148.26 389.82 148.86 C 395.19 149.92 400.60 150.78 406.01 151.68 C 400.03 152.02 395.05 155.75 389.37 157.22 C 389.44 157.76 389.59 158.84 389.66 159.39 C 388.45 159.24 387.24 159.13 386.03 159.06 C 386.65 158.10 387.25 157.11 387.84 156.13 C 385.73 154.72 383.61 153.33 381.50 151.92 Z" fill="#0659b0" opacity="1.00" stroke="#0659b0" stroke-width="0.25"/>
<path d="M 389.37 157.22 C 395.05 155.75 400.03 152.02 406.01 151.68 C 409.93 152.36 413.89 152.87 417.86 153.33 C 419.64 153.58 421.41 153.93 423.18 154.28 C 418.00 158.86 411.73 162.01 405.34 164.55 C 400.11 162.85 394.96 160.88 389.66 159.39 C 389.59 158.84 389.44 157.76 389.37 157.22 Z" fill="#053e91" opacity="1.00" stroke="#053e91" stroke-width="0.25"/>
<path d="M 376.22 156.17 C 379.32 155.07 382.66 154.28 385.84 155.60 C 385.38 156.74 384.93 157.89 384.47 159.04 C 384.86 159.05 385.64 159.06 386.03 159.06 C 387.24 159.13 388.45 159.24 389.66 159.39 C 394.96 160.88 400.11 162.85 405.34 164.55 C 405.35 165.80 405.37 167.04 405.38 168.29 C 404.10 168.61 402.83 168.92 401.56 169.25 C 401.43 170.51 401.30 171.76 401.17 173.02 C 396.43 175.05 391.26 176.69 386.23 174.55 L 385.65 173.77 C 389.07 173.75 392.73 174.34 395.95 172.90 C 398.76 171.04 400.09 167.74 401.92 165.02 C 397.51 163.38 393.09 161.65 388.46 160.75 C 384.80 159.94 381.48 162.17 378.17 163.32 C 379.91 162.00 381.52 160.53 383.13 159.06 C 380.85 158.83 378.56 158.63 376.29 158.45 C 376.27 157.88 376.23 156.74 376.22 156.17 Z" fill="#a8c3d0" opacity="1.00" stroke="#a8c3d0" stroke-width="0.25"/>
<path d="M 438.63 164.81 C 444.53 162.09 450.16 158.84 455.97 155.93 C 451.85 161.22 444.47 162.21 439.43 166.41 C 435.86 176.12 434.06 186.41 430.08 195.99 C 428.47 200.92 427.22 206.07 424.46 210.52 C 423.77 211.29 423.26 212.80 422.03 212.67 C 420.53 212.93 420.52 210.88 420.17 209.94 C 418.72 201.49 418.76 192.84 417.56 184.35 C 417.61 182.67 415.91 181.60 414.42 182.38 C 406.69 184.92 400.21 190.86 391.93 191.82 C 398.68 188.26 405.49 184.79 412.44 181.65 C 412.91 181.45 413.84 181.04 414.30 180.84 L 414.91 180.53 C 416.00 181.00 417.10 181.47 418.20 181.94 C 420.15 191.34 419.01 201.38 422.86 210.34 C 426.06 204.81 427.52 198.55 429.59 192.57 C 432.36 184.63 434.46 176.48 437.13 168.51 C 437.61 167.27 438.12 166.04 438.63 164.81 Z" fill="#8ca8c5" opacity="1.00" stroke="#8ca8c5" stroke-width="0.25"/>
<path d="M 271.97 158.15 C 281.37 157.34 291.02 157.05 300.12 159.94 C 302.07 161.21 303.94 162.60 305.84 163.95 C 292.27 162.29 277.51 158.94 264.75 165.74 C 255.14 168.58 246.92 175.04 240.81 182.86 C 237.69 186.74 234.35 190.47 231.70 194.71 C 226.14 201.73 226.08 210.96 225.79 219.47 C 224.32 219.70 222.86 219.93 221.41 220.18 C 222.24 216.08 222.20 211.89 222.00 207.73 C 223.08 203.51 224.56 199.38 225.24 195.06 C 216.71 194.97 207.69 198.63 203.01 206.02 C 201.80 208.03 200.69 210.11 199.40 212.07 C 192.83 210.32 187.88 204.72 180.99 203.94 C 176.54 204.79 173.05 208.12 169.14 210.25 C 168.94 214.79 168.64 219.32 168.25 223.84 C 177.84 221.07 188.04 219.99 197.87 222.13 C 199.33 222.70 200.80 223.28 202.29 223.81 C 193.47 222.97 184.32 222.04 175.73 224.87 C 166.84 228.02 157.73 232.11 151.86 239.83 C 149.90 241.88 148.19 244.16 146.63 246.53 C 143.65 250.03 142.54 254.97 139.10 258.00 C 132.10 258.26 125.02 258.51 118.17 256.78 C 119.78 249.40 126.02 244.17 127.78 236.82 C 129.30 230.30 129.86 222.99 126.82 216.80 C 127.70 211.50 130.61 206.87 135.06 203.83 C 143.14 199.99 152.20 199.25 161.02 199.02 C 170.13 198.86 178.80 202.14 187.79 203.12 C 186.69 201.89 185.59 200.65 184.43 199.48 C 188.66 201.22 192.71 203.35 196.89 205.21 C 197.20 204.97 197.83 204.48 198.14 204.24 C 201.42 201.46 204.44 198.32 208.12 196.03 C 213.45 192.60 219.74 191.56 225.89 190.69 C 229.33 190.39 230.47 186.66 232.14 184.21 C 238.42 175.44 246.90 168.31 256.67 163.73 C 261.68 161.63 266.93 160.18 271.97 158.15 Z" fill="#c2eafb" opacity="1.00" stroke="#c2eafb" stroke-width="0.25"/>
<path d="M 300.12 159.94 C 301.67 160.36 303.23 160.75 304.77 161.23 C 308.99 162.86 312.80 165.35 316.64 167.71 C 316.19 168.24 315.30 169.30 314.85 169.83 C 309.58 168.14 304.53 165.79 299.19 164.36 C 294.35 163.17 289.36 162.73 284.39 162.75 C 277.64 162.08 271.28 164.62 264.75 165.74 C 277.51 158.94 292.27 162.29 305.84 163.95 C 303.94 162.60 302.07 161.21 300.12 159.94 Z" fill="#65beeb" opacity="1.00" stroke="#65beeb" stroke-width="0.25"/>
<path d="M 378.17 163.32 C 381.48 162.17 384.80 159.94 388.46 160.75 C 393.09 161.65 397.51 163.38 401.92 165.02 C 400.09 167.74 398.76 171.04 395.95 172.90 C 392.73 174.34 389.07 173.75 385.65 173.77 C 378.20 172.46 370.75 170.69 363.13 171.58 C 366.22 171.33 369.33 171.20 372.43 170.98 C 370.21 170.00 367.99 169.02 365.79 168.01 C 366.58 167.39 367.38 166.78 368.20 166.18 C 371.54 165.31 374.96 164.64 378.17 163.32 Z" fill="#fdfefd" opacity="1.00" stroke="#fdfefd" stroke-width="0.25"/>
<path d="M 264.75 165.74 C 271.28 164.62 277.64 162.08 284.39 162.75 C 282.02 166.58 276.97 168.04 275.56 172.52 C 273.67 178.16 269.47 182.50 266.46 187.52 C 263.71 192.36 260.19 196.77 258.06 201.95 C 255.40 209.36 249.33 214.97 247.41 222.74 C 249.86 226.29 251.91 231.57 257.09 231.28 C 255.70 231.68 254.31 232.10 252.93 232.54 C 248.80 229.19 246.07 224.26 241.22 221.82 C 236.79 219.54 231.91 218.39 227.02 217.59 C 225.91 209.58 229.18 202.10 231.70 194.71 C 234.35 190.47 237.69 186.74 240.81 182.86 C 246.92 175.04 255.14 168.58 264.75 165.74 Z" fill="#31a9e2" opacity="1.00" stroke="#31a9e2" stroke-width="0.25"/>
<path d="M 284.39 162.75 C 289.36 162.73 294.35 163.17 299.19 164.36 C 295.41 164.61 292.68 167.25 291.79 170.83 C 288.79 180.58 281.07 187.77 277.02 197.01 C 275.12 201.49 270.85 204.26 268.58 208.49 C 265.62 214.84 259.99 220.01 259.86 227.46 C 262.92 227.39 265.99 227.34 269.05 227.05 C 265.11 228.59 261.18 230.17 257.09 231.28 C 251.91 231.57 249.86 226.29 247.41 222.74 C 249.33 214.97 255.40 209.36 258.06 201.95 C 260.19 196.77 263.71 192.36 266.46 187.52 C 269.47 182.50 273.67 178.16 275.56 172.52 C 276.97 168.04 282.02 166.58 284.39 162.75 Z" fill="#259ad9" opacity="1.00" stroke="#259ad9" stroke-width="0.25"/>
<path d="M 291.79 170.83 C 292.68 167.25 295.41 164.61 299.19 164.36 C 304.53 165.79 309.58 168.14 314.85 169.83 C 315.30 169.30 316.19 168.24 316.64 167.71 C 320.48 170.04 323.18 173.70 326.46 176.69 C 326.23 177.55 325.78 179.29 325.55 180.16 C 320.35 177.62 316.20 172.53 310.11 172.20 C 305.83 173.43 304.47 178.18 302.60 181.69 C 300.30 186.74 295.67 190.29 293.55 195.45 C 290.37 203.19 285.36 209.99 282.30 217.79 C 285.89 217.38 289.49 217.57 293.07 217.98 C 288.74 220.04 284.35 221.95 279.88 223.67 C 276.24 224.72 272.61 225.79 269.05 227.05 C 265.99 227.34 262.92 227.39 259.86 227.46 C 259.99 220.01 265.62 214.84 268.58 208.49 C 270.85 204.26 275.12 201.49 277.02 197.01 C 281.07 187.77 288.79 180.58 291.79 170.83 Z" fill="#1a8ed2" opacity="1.00" stroke="#1a8ed2" stroke-width="0.25"/>
<path d="M 359.85 168.00 C 362.61 167.29 365.41 166.77 368.20 166.18 C 367.38 166.78 366.58 167.39 365.79 168.01 C 367.99 169.02 370.21 170.00 372.43 170.98 C 369.33 171.20 366.22 171.33 363.13 171.58 C 361.42 171.64 359.72 171.71 358.03 171.65 C 356.61 169.95 358.69 168.94 359.85 168.00 Z" fill="#c7dae8" opacity="1.00" stroke="#c7dae8" stroke-width="0.25"/>
<path d="M 401.17 173.02 C 406.14 171.36 411.07 169.47 416.24 168.50 C 414.47 170.77 412.63 172.98 410.80 175.21 C 411.98 177.07 413.15 178.95 414.30 180.84 C 413.84 181.04 412.91 181.45 412.44 181.65 C 408.86 179.40 404.60 180.84 400.85 181.80 C 397.94 182.57 395.46 184.32 392.86 185.76 C 390.03 187.40 386.63 186.77 383.51 186.90 C 383.03 187.48 382.55 188.06 382.08 188.64 C 381.03 185.98 378.59 184.60 376.08 183.58 C 375.30 183.10 374.54 182.60 373.80 182.09 C 375.42 180.00 376.82 177.63 379.01 176.06 C 381.21 174.86 383.79 174.82 386.23 174.55 C 391.26 176.69 396.43 175.05 401.17 173.02 Z" fill="#04368f" opacity="1.00" stroke="#04368f" stroke-width="0.25"/>
<path d="M 428.36 169.31 C 431.22 168.59 434.22 168.99 437.13 168.51 C 434.46 176.48 432.36 184.63 429.59 192.57 C 427.52 198.55 426.06 204.81 422.86 210.34 C 419.01 201.38 420.15 191.34 418.20 181.94 C 417.10 181.47 416.00 181.00 414.91 180.53 C 416.36 178.18 416.99 175.05 419.57 173.60 C 422.36 171.92 425.29 170.43 428.36 169.31 Z" fill="#0357b1" opacity="1.00" stroke="#0357b1" stroke-width="0.25"/>
<path d="M 302.60 181.69 C 304.47 178.18 305.83 173.43 310.11 172.20 C 316.20 172.53 320.35 177.62 325.55 180.16 C 325.78 179.29 326.23 177.55 326.46 176.69 C 326.85 177.03 327.64 177.71 328.03 178.06 C 330.35 181.32 331.83 185.10 332.17 189.11 C 328.41 187.17 325.43 184.13 322.78 180.91 C 318.01 185.45 312.92 189.96 309.80 195.85 C 307.90 200.43 306.56 205.35 303.24 209.17 C 305.57 209.95 307.89 210.77 310.21 211.61 C 304.63 214.07 298.99 216.45 293.07 217.98 C 289.49 217.57 285.89 217.38 282.30 217.79 C 285.36 209.99 290.37 203.19 293.55 195.45 C 295.67 190.29 300.30 186.74 302.60 181.69 Z" fill="#1181cb" opacity="1.00" stroke="#1181cb" stroke-width="0.25"/>
<path d="M 328.03 178.06 C 330.06 179.64 332.23 181.23 333.31 183.66 C 335.83 188.66 337.90 193.90 341.00 198.59 C 330.78 203.04 320.74 207.90 310.21 211.61 C 307.89 210.77 305.57 209.95 303.24 209.17 C 306.56 205.35 307.90 200.43 309.80 195.85 C 312.92 189.96 318.01 185.45 322.78 180.91 C 325.43 184.13 328.41 187.17 332.17 189.11 C 331.83 185.10 330.35 181.32 328.03 178.06 Z" fill="#0873c2" opacity="1.00" stroke="#0873c2" stroke-width="0.25"/>
<path d="M 400.85 181.80 C 404.60 180.84 408.86 179.40 412.44 181.65 C 405.49 184.79 398.68 188.26 391.93 191.82 C 386.46 193.53 381.25 196.10 375.53 196.90 C 377.50 193.99 379.74 191.27 382.08 188.64 C 382.55 188.06 383.03 187.48 383.51 186.90 C 386.63 186.77 390.03 187.40 392.86 185.76 C 395.46 184.32 397.94 182.57 400.85 181.80 Z" fill="#062b74" opacity="1.00" stroke="#062b74" stroke-width="0.25"/>
<path d="M 365.15 187.13 C 368.57 185.36 372.28 184.24 376.08 183.58 C 378.59 184.60 381.03 185.98 382.08 188.64 C 379.74 191.27 377.50 193.99 375.53 196.90 C 381.25 196.10 386.46 193.53 391.93 191.82 C 388.32 195.42 383.04 196.29 378.44 198.02 C 376.76 198.07 375.08 198.16 373.42 197.97 C 374.61 193.58 378.32 190.68 380.81 187.07 C 380.23 186.84 379.05 186.39 378.47 186.16 C 376.39 185.14 374.01 184.89 371.88 185.91 C 362.04 189.64 353.09 195.35 343.26 199.10 C 327.36 206.18 311.33 212.97 294.98 218.94 C 290.01 220.68 285.23 223.31 279.88 223.67 C 284.35 221.95 288.74 220.04 293.07 217.98 C 298.99 216.45 304.63 214.07 310.21 211.61 C 320.74 207.90 330.78 203.04 341.00 198.59 C 349.26 195.24 357.18 191.11 365.15 187.13 Z" fill="#93a3b5" opacity="1.00" stroke="#93a3b5" stroke-width="0.25"/>
<path d="M 378.47 186.16 C 379.05 186.39 380.23 186.84 380.81 187.07 C 378.32 190.68 374.61 193.58 373.42 197.97 C 375.08 198.16 376.76 198.07 378.44 198.02 L 378.86 198.34 C 374.57 199.25 371.30 202.42 368.72 205.80 C 367.27 207.90 367.83 210.97 365.77 212.72 C 363.23 215.08 360.55 217.54 357.26 218.77 C 356.16 218.57 355.07 218.34 353.98 218.10 C 357.54 214.56 362.98 212.93 365.20 208.16 C 367.27 204.42 369.33 200.67 370.73 196.62 C 372.05 192.30 376.43 190.07 378.47 186.16 Z" fill="#cdd2d4" opacity="1.00" stroke="#cdd2d4" stroke-width="0.25"/>
<path d="M 140.21 196.29 C 150.69 193.73 161.55 194.44 172.23 194.80 C 176.41 196.03 180.43 197.76 184.43 199.48 C 185.59 200.65 186.69 201.89 187.79 203.12 C 178.80 202.14 170.13 198.86 161.02 199.02 C 152.20 199.25 143.14 199.99 135.06 203.83 C 131.64 204.91 128.29 206.23 125.34 208.30 C 118.21 212.76 110.39 217.60 107.05 225.72 C 107.94 226.36 108.85 226.98 109.67 227.72 C 109.78 231.98 107.45 235.96 107.77 240.27 C 108.04 245.90 108.15 251.57 107.23 257.16 C 111.86 259.45 117.10 259.32 122.13 259.66 C 127.81 259.90 133.73 260.21 139.10 258.00 C 142.54 254.97 143.65 250.03 146.63 246.53 C 146.29 249.95 144.42 252.89 142.84 255.86 C 141.88 257.48 140.89 259.52 138.82 259.87 C 129.33 261.70 119.60 261.16 110.00 261.18 C 103.04 261.16 96.24 259.60 89.39 258.61 C 86.74 258.12 83.93 261.41 81.73 259.01 C 82.46 258.92 83.92 258.72 84.65 258.62 C 85.93 251.81 87.04 244.79 90.78 238.80 C 95.63 227.75 103.88 218.70 112.56 210.52 C 120.15 203.10 130.73 200.41 140.21 196.29 Z" fill="#e1f5fc" opacity="1.00" stroke="#e1f5fc" stroke-width="0.25"/>
<path d="M 203.01 206.02 C 207.69 198.63 216.71 194.97 225.24 195.06 C 224.56 199.38 223.08 203.51 222.00 207.73 C 221.24 210.82 220.66 213.96 220.13 217.10 C 214.04 218.28 208.60 221.97 202.29 221.98 C 202.02 216.65 202.03 211.28 203.01 206.02 Z" fill="#78ccf2" opacity="1.00" stroke="#78ccf2" stroke-width="0.25"/>
<path d="M 225.79 219.47 C 226.08 210.96 226.14 201.73 231.70 194.71 C 229.18 202.10 225.91 209.58 227.02 217.59 C 231.91 218.39 236.79 219.54 241.22 221.82 C 241.74 222.82 242.28 223.83 242.82 224.85 C 234.75 222.52 226.28 222.28 217.95 222.84 C 215.67 222.98 213.57 223.92 211.48 224.72 C 213.64 226.52 215.80 228.33 217.99 230.09 C 217.55 229.96 216.65 229.68 216.21 229.55 C 213.86 228.43 211.58 227.18 209.24 226.07 C 209.74 225.01 209.80 223.50 211.01 222.97 C 214.26 221.39 217.89 220.84 221.41 220.18 C 222.86 219.93 224.32 219.70 225.79 219.47 Z" fill="#87ddfa" opacity="1.00" stroke="#87ddfa" stroke-width="0.25"/>
<path d="M 404.34 199.38 C 405.49 197.86 407.48 198.49 409.11 198.40 C 411.69 204.37 415.69 209.80 417.50 216.05 C 416.25 222.74 420.65 228.49 420.96 235.01 C 421.47 240.84 421.98 246.73 423.82 252.32 C 426.99 261.61 427.58 271.85 425.00 281.35 C 422.32 281.54 419.44 281.53 417.11 283.06 C 414.82 284.52 412.92 286.48 410.93 288.29 C 412.79 291.05 414.94 293.59 416.86 296.30 C 417.47 301.97 414.50 307.29 411.29 311.75 C 408.94 314.88 405.90 317.37 403.01 319.97 C 407.17 313.04 414.46 307.48 415.29 298.96 C 415.89 295.91 412.12 295.03 410.05 293.91 C 404.46 291.95 399.84 288.19 394.87 285.11 C 391.26 282.96 388.69 279.22 387.62 275.21 C 389.67 269.77 394.17 265.95 397.79 261.64 C 398.08 257.29 397.06 252.96 397.44 248.60 C 397.69 241.95 401.82 236.27 402.47 229.68 C 402.75 226.16 404.99 223.20 405.53 219.77 C 405.26 215.99 404.74 211.74 401.78 209.04 C 400.76 209.94 399.81 210.92 398.68 211.67 C 397.12 211.87 396.33 210.11 395.25 209.31 C 398.32 206.04 401.10 202.49 404.34 199.38 Z" fill="#02388a" opacity="1.00" stroke="#02388a" stroke-width="0.25"/>
<path d="M 341.13 210.23 C 346.14 207.32 351.17 203.93 357.02 203.11 C 356.02 207.02 351.83 208.00 348.74 209.75 C 347.28 210.30 345.82 211.66 344.16 211.13 C 343.14 210.85 342.14 210.54 341.13 210.23 Z" fill="#bfd4e2" opacity="1.00" stroke="#bfd4e2" stroke-width="0.25"/>
<path d="M 125.34 208.30 C 128.29 206.23 131.64 204.91 135.06 203.83 C 130.61 206.87 127.70 211.50 126.82 216.80 C 129.86 222.99 129.30 230.30 127.78 236.82 C 126.02 244.17 119.78 249.40 118.17 256.78 C 125.02 258.51 132.10 258.26 139.10 258.00 C 133.73 260.21 127.81 259.90 122.13 259.66 C 117.10 259.32 111.86 259.45 107.23 257.16 C 108.15 251.57 108.04 245.90 107.77 240.27 C 107.45 235.96 109.78 231.98 109.67 227.72 C 108.85 226.98 107.94 226.36 107.05 225.72 C 110.39 217.60 118.21 212.76 125.34 208.30 Z" fill="#d2f0fb" opacity="1.00" stroke="#d2f0fb" stroke-width="0.25"/>
<path d="M 169.14 210.25 C 173.05 208.12 176.54 204.79 180.99 203.94 C 187.88 204.72 192.83 210.32 199.40 212.07 C 198.23 213.75 196.69 215.22 195.93 217.15 C 195.47 219.06 196.90 220.64 197.87 222.13 C 188.04 219.99 177.84 221.07 168.25 223.84 C 168.64 219.32 168.94 214.79 169.14 210.25 Z" fill="#abe6fa" opacity="1.00" stroke="#abe6fa" stroke-width="0.25"/>
<path d="M 199.40 212.07 C 200.69 210.11 201.80 208.03 203.01 206.02 C 202.03 211.28 202.02 216.65 202.29 221.98 C 208.60 221.97 214.04 218.28 220.13 217.10 C 220.66 213.96 221.24 210.82 222.00 207.73 C 222.20 211.89 222.24 216.08 221.41 220.18 C 217.89 220.84 214.26 221.39 211.01 222.97 C 209.80 223.50 209.74 225.01 209.24 226.07 C 206.99 225.12 204.63 224.46 202.29 223.81 C 200.80 223.28 199.33 222.70 197.87 222.13 C 196.90 220.64 195.47 219.06 195.93 217.15 C 196.69 215.22 198.23 213.75 199.40 212.07 Z" fill="#9ddcf5" opacity="1.00" stroke="#9ddcf5" stroke-width="0.25"/>
<path d="M 364.56 241.55 C 375.23 231.22 385.17 220.20 395.25 209.31 C 396.33 210.11 397.12 211.87 398.68 211.67 C 399.81 210.92 400.76 209.94 401.78 209.04 C 404.74 211.74 405.26 215.99 405.53 219.77 C 404.99 223.20 402.75 226.16 402.47 229.68 C 401.82 236.27 397.69 241.95 397.44 248.60 C 397.06 252.96 398.08 257.29 397.79 261.64 C 394.17 265.95 389.67 269.77 387.62 275.21 C 388.69 279.22 391.26 282.96 394.87 285.11 C 399.84 288.19 404.46 291.95 410.05 293.91 C 412.12 295.03 415.89 295.91 415.29 298.96 C 414.46 307.48 407.17 313.04 403.01 319.97 C 395.44 324.70 387.42 328.78 380.43 334.38 C 373.39 338.75 365.97 342.63 358.07 345.20 C 350.15 347.78 343.23 353.28 334.69 353.85 C 333.93 355.06 333.17 356.27 332.42 357.50 C 327.25 357.93 321.77 358.38 317.34 361.36 C 314.95 362.88 314.01 365.70 312.85 368.13 C 310.52 368.66 308.19 369.20 305.88 369.79 C 303.07 374.62 297.48 376.33 292.79 378.73 C 288.35 380.98 283.22 380.46 278.51 381.65 C 275.57 383.24 273.80 386.41 270.76 387.86 C 268.06 388.16 265.36 387.60 262.67 387.42 C 256.71 386.80 250.88 388.61 244.95 388.81 C 239.60 388.99 234.25 389.23 228.93 389.84 C 222.75 390.70 216.81 387.77 210.62 388.56 C 203.72 389.28 196.86 387.89 189.96 387.96 C 183.47 387.95 177.18 386.21 170.93 384.69 C 187.26 377.04 204.00 369.94 218.92 359.69 C 219.23 359.52 219.85 359.17 220.16 359.00 C 227.07 360.34 234.07 358.82 241.01 359.42 C 251.24 360.42 261.73 361.37 271.86 359.10 C 278.37 357.79 285.05 358.65 291.62 357.86 C 296.75 357.61 301.74 356.39 306.68 355.06 C 316.60 353.18 326.95 353.12 336.49 349.50 C 342.75 347.20 349.39 346.03 355.53 343.38 C 362.10 340.41 368.98 338.04 375.13 334.22 C 384.93 328.60 396.08 324.38 403.48 315.45 C 407.17 310.76 411.31 305.92 412.70 299.98 C 412.61 296.30 408.06 295.79 405.55 294.23 C 396.24 289.28 386.04 285.91 377.66 279.34 C 367.42 272.49 357.86 264.67 348.95 256.19 C 354.77 251.99 359.50 246.58 364.56 241.55 Z" fill="#03459a" opacity="1.00" stroke="#03459a" stroke-width="0.25"/>
<path d="M 306.22 226.08 C 317.79 220.64 329.80 216.15 341.13 210.23 C 342.14 210.54 343.14 210.85 344.16 211.13 C 332.99 217.99 322.08 225.35 310.16 230.91 C 307.76 229.98 305.18 228.58 302.57 229.61 C 298.29 230.97 294.26 233.01 289.91 234.13 C 291.32 233.17 292.67 232.13 294.09 231.17 C 297.99 229.16 302.28 228.03 306.22 226.08 Z" fill="#247ab0" opacity="1.00" stroke="#247ab0" stroke-width="0.25"/>
<path d="M 367.38 222.39 C 369.95 219.90 372.66 217.47 376.02 216.10 C 373.88 220.99 368.64 223.38 365.08 227.11 C 360.48 230.83 357.36 236.70 351.50 238.61 C 352.25 237.72 352.98 236.82 353.72 235.92 C 349.88 237.27 345.95 238.30 341.99 239.20 C 343.67 237.03 346.77 237.38 348.94 235.97 C 351.35 234.43 353.46 232.46 355.73 230.72 C 359.47 227.73 363.91 225.72 367.38 222.39 Z" fill="#84bed2" opacity="1.00" stroke="#84bed2" stroke-width="0.25"/>
<path d="M 417.50 216.05 C 419.53 218.11 420.03 221.02 420.73 223.71 C 420.92 223.24 421.11 222.78 421.31 222.32 C 422.84 230.99 426.98 239.12 427.75 247.98 C 428.11 252.99 428.61 257.99 428.59 263.01 C 428.46 276.86 429.52 291.01 425.52 304.47 C 422.09 319.96 415.02 334.34 406.77 347.79 C 400.13 357.58 392.93 367.16 383.98 374.98 C 370.21 387.78 354.43 398.41 337.43 406.44 C 327.44 411.24 317.21 415.63 306.48 418.54 C 297.30 421.51 287.70 422.58 278.24 424.30 C 269.23 425.71 260.08 425.13 251.01 425.32 C 235.05 425.76 219.23 422.90 203.74 419.35 C 185.70 414.99 168.76 407.04 152.71 397.86 C 154.36 397.72 156.14 397.45 157.64 398.38 C 162.61 400.93 167.66 403.50 173.14 404.77 C 177.54 405.70 181.79 403.58 186.12 403.10 C 189.41 402.51 192.44 404.31 195.29 405.68 C 200.05 408.24 205.01 410.67 210.42 411.43 C 214.87 412.24 219.80 411.52 223.74 414.18 C 226.75 416.27 230.50 416.09 234.00 416.00 C 241.19 415.77 248.41 416.36 255.57 415.48 C 263.85 414.42 272.35 416.72 280.51 414.33 C 287.64 411.95 294.50 408.83 301.08 405.22 C 307.63 402.81 313.85 399.15 320.88 398.32 C 332.02 396.73 342.68 392.75 353.91 391.74 C 357.95 391.41 360.44 387.77 363.49 385.53 C 367.91 382.19 369.87 376.65 374.37 373.38 C 378.21 370.61 378.77 365.38 382.37 362.41 C 385.00 360.00 387.53 357.44 389.45 354.41 C 393.81 347.54 398.45 340.85 403.41 334.40 C 405.35 331.86 407.30 329.20 408.10 326.06 C 409.31 321.32 409.47 316.32 411.29 311.75 C 414.50 307.29 417.47 301.97 416.86 296.30 C 414.94 293.59 412.79 291.05 410.93 288.29 C 412.92 286.48 414.82 284.52 417.11 283.06 C 419.44 281.53 422.32 281.54 425.00 281.35 C 427.58 271.85 426.99 261.61 423.82 252.32 C 421.98 246.73 421.47 240.84 420.96 235.01 C 420.65 228.49 416.25 222.74 417.50 216.05 Z" fill="#042c77" opacity="1.00" stroke="#042c77" stroke-width="0.25"/>
<path d="M 336.14 228.91 C 341.99 225.18 347.97 221.59 353.98 218.10 C 355.07 218.34 356.16 218.57 357.26 218.77 C 352.37 224.36 344.76 227.23 341.20 233.99 C 340.86 232.57 340.51 231.15 340.18 229.73 C 338.83 229.47 337.48 229.18 336.14 228.91 Z" fill="#83c2d3" opacity="1.00" stroke="#83c2d3" stroke-width="0.25"/>
<path d="M 241.22 221.82 C 246.07 224.26 248.80 229.19 252.93 232.54 C 245.10 235.05 237.18 237.30 229.27 239.54 C 226.89 237.32 224.44 235.16 221.92 233.11 C 220.66 232.03 219.34 231.04 217.99 230.09 C 215.80 228.33 213.64 226.52 211.48 224.72 C 213.57 223.92 215.67 222.98 217.95 222.84 C 226.28 222.28 234.75 222.52 242.82 224.85 C 242.28 223.83 241.74 222.82 241.22 221.82 Z" fill="#4fc9f2" opacity="1.00" stroke="#4fc9f2" stroke-width="0.25"/>
<path d="M 175.73 224.87 C 184.32 222.04 193.47 222.97 202.29 223.81 C 204.63 224.46 206.99 225.12 209.24 226.07 C 211.58 227.18 213.86 228.43 216.21 229.55 C 218.07 232.08 219.94 234.62 221.85 237.13 C 216.56 235.12 211.89 231.18 206.04 230.95 C 202.56 230.77 198.95 230.49 195.58 231.57 C 194.45 233.17 193.67 234.98 192.82 236.75 C 194.34 237.96 195.86 239.18 197.37 240.41 C 196.11 242.04 195.00 243.78 193.97 245.57 C 199.95 247.92 206.34 246.05 212.45 245.39 C 218.21 244.82 223.34 241.35 229.22 241.62 C 224.38 245.10 218.21 245.84 212.60 247.47 C 195.39 249.91 178.50 255.26 160.97 254.85 C 163.29 249.72 164.81 244.00 168.94 239.94 C 172.16 236.85 175.11 233.25 179.08 231.11 C 188.31 228.04 198.23 227.11 207.82 228.90 C 207.74 228.35 207.58 227.25 207.50 226.70 C 202.44 226.55 197.54 225.26 192.57 224.51 C 182.73 224.05 173.12 227.17 164.31 231.30 C 159.36 233.61 157.00 239.57 151.45 240.81 L 151.86 239.83 C 157.73 232.11 166.84 228.02 175.73 224.87 Z" fill="#edf9fd" opacity="1.00" stroke="#edf9fd" stroke-width="0.25"/>
<path d="M 269.05 227.05 C 272.61 225.79 276.24 224.72 279.88 223.67 C 277.62 225.83 274.50 226.54 271.66 227.61 C 265.03 230.08 258.27 232.17 251.58 234.47 C 244.50 236.88 237.15 238.46 230.18 241.20 C 226.68 239.35 224.12 236.30 221.92 233.11 C 224.44 235.16 226.89 237.32 229.27 239.54 C 237.18 237.30 245.10 235.05 252.93 232.54 C 254.31 232.10 255.70 231.68 257.09 231.28 C 261.18 230.17 265.11 228.59 269.05 227.05 Z" fill="#84bed2" opacity="1.00" stroke="#84bed2" stroke-width="0.25"/>
<path d="M 58.84 234.84 C 62.57 231.18 65.98 226.86 71.05 225.02 C 67.26 233.24 59.80 239.43 57.27 248.33 C 54.55 255.03 55.11 263.37 60.19 268.81 C 66.28 274.69 74.85 276.99 83.01 278.20 C 92.21 278.82 101.45 278.12 110.67 278.36 C 111.49 284.15 108.69 289.32 105.94 294.18 C 107.03 294.38 108.12 294.63 109.19 294.95 C 109.92 296.01 109.73 297.41 110.02 298.63 C 97.48 298.82 84.94 300.56 72.41 299.33 C 62.70 297.53 52.66 294.62 45.21 287.81 C 40.15 283.37 36.93 276.81 37.11 270.02 C 36.78 264.07 40.00 258.78 42.82 253.80 C 47.57 247.02 52.91 240.62 58.84 234.84 Z" fill="#a7cdd9" opacity="1.00" stroke="#a7cdd9" stroke-width="0.25"/>
<path d="M 302.57 229.61 C 305.18 228.58 307.76 229.98 310.16 230.91 C 299.72 236.70 289.29 242.57 278.29 247.24 C 267.80 251.85 257.21 256.18 246.55 260.36 C 239.36 263.53 232.06 266.63 224.42 268.48 C 221.11 268.83 217.86 269.59 214.74 270.73 C 207.11 273.58 198.91 271.50 191.01 271.83 C 186.83 271.59 181.62 272.67 178.73 268.81 C 194.59 265.41 210.26 261.21 225.89 256.88 C 237.37 252.64 249.24 249.53 260.49 244.66 C 270.34 241.27 279.96 237.24 289.91 234.13 C 294.26 233.01 298.29 230.97 302.57 229.61 Z" fill="#0d7fc5" opacity="1.00" stroke="#0d7fc5" stroke-width="0.25"/>
<path d="M 336.14 228.91 C 337.48 229.18 338.83 229.47 340.18 229.73 C 340.51 231.15 340.86 232.57 341.20 233.99 C 338.39 236.02 335.39 237.74 332.35 239.40 C 327.93 241.76 324.54 245.59 320.20 248.07 C 310.62 253.77 301.91 260.91 291.77 265.64 C 281.45 270.97 271.78 277.60 261.01 282.08 C 262.59 280.77 264.10 279.37 265.60 277.98 C 259.05 276.18 252.19 276.61 245.80 278.87 C 248.68 277.45 251.38 275.69 254.17 274.11 C 266.84 268.46 278.75 261.29 291.21 255.20 C 297.94 251.12 305.12 247.87 311.93 243.92 C 319.80 238.60 328.79 235.04 336.14 228.91 Z" fill="#31b1e1" opacity="1.00" stroke="#31b1e1" stroke-width="0.25"/>
<path d="M 216.21 229.55 C 216.65 229.68 217.55 229.96 217.99 230.09 C 219.34 231.04 220.66 232.03 221.92 233.11 C 224.12 236.30 226.68 239.35 230.18 241.20 L 230.86 241.60 C 230.45 241.61 229.63 241.62 229.22 241.62 C 223.34 241.35 218.21 244.82 212.45 245.39 C 206.34 246.05 199.95 247.92 193.97 245.57 C 195.00 243.78 196.11 242.04 197.37 240.41 C 195.86 239.18 194.34 237.96 192.82 236.75 C 193.67 234.98 194.45 233.17 195.58 231.57 C 198.95 230.49 202.56 230.77 206.04 230.95 C 211.89 231.18 216.56 235.12 221.85 237.13 C 219.94 234.62 218.07 232.08 216.21 229.55 Z" fill="#dff4fc" opacity="1.00" stroke="#dff4fc" stroke-width="0.25"/>
<path d="M 289.33 232.45 C 290.88 231.89 292.48 231.50 294.09 231.17 C 292.67 232.13 291.32 233.17 289.91 234.13 C 279.96 237.24 270.34 241.27 260.49 244.66 C 249.24 249.53 237.37 252.64 225.89 256.88 C 210.26 261.21 194.59 265.41 178.73 268.81 C 181.62 272.67 186.83 271.59 191.01 271.83 C 198.91 271.50 207.11 273.58 214.74 270.73 C 217.86 269.59 221.11 268.83 224.42 268.48 C 217.31 272.45 209.05 273.68 201.40 276.29 C 181.72 283.73 161.49 289.89 140.74 293.52 C 131.11 295.20 121.53 297.84 111.69 297.74 C 112.04 293.88 115.29 291.38 118.19 289.26 C 121.36 286.98 126.54 290.05 128.65 285.97 C 125.93 284.23 122.46 282.45 123.03 278.63 C 127.77 278.32 132.27 276.63 137.01 276.28 C 150.46 274.73 163.59 271.33 176.59 267.63 C 191.86 265.14 206.68 260.63 221.63 256.73 C 244.55 249.66 266.89 240.90 289.33 232.45 Z" fill="#69a9d2" opacity="1.00" stroke="#69a9d2" stroke-width="0.25"/>
<path d="M 59.19 236.18 C 60.54 234.80 62.24 233.84 63.97 233.00 C 61.60 237.78 57.80 241.78 56.15 246.92 C 54.18 253.21 53.09 260.51 56.61 266.49 C 60.23 272.02 66.53 274.73 72.13 277.78 C 69.39 277.46 66.66 277.03 63.96 276.50 C 61.91 278.07 59.86 279.65 57.80 281.22 C 58.87 284.21 60.13 287.12 61.78 289.84 C 60.95 290.84 60.11 291.84 59.28 292.84 C 62.78 293.65 66.15 294.97 69.23 296.83 C 64.73 297.22 60.65 295.08 56.58 293.51 C 48.44 290.28 41.08 283.77 38.85 275.05 C 36.62 268.16 40.10 261.21 43.29 255.25 C 48.03 248.47 53.24 241.95 59.19 236.18 Z" fill="#3fbfee" opacity="1.00" stroke="#3fbfee" stroke-width="0.25"/>
<path d="M 341.99 239.20 C 345.95 238.30 349.88 237.27 353.72 235.92 C 352.98 236.82 352.25 237.72 351.50 238.61 C 345.59 244.65 339.38 250.42 332.78 255.69 C 328.15 258.68 324.78 263.15 320.33 266.36 C 311.20 273.14 302.85 280.91 293.76 287.74 C 288.63 291.62 283.43 295.40 278.42 299.43 C 277.46 300.05 276.24 301.36 275.03 300.58 C 270.16 297.80 265.03 295.56 259.83 293.52 C 262.36 291.85 264.69 289.91 267.05 288.02 C 276.85 281.34 287.17 275.49 297.18 269.13 C 307.85 261.76 318.93 255.00 329.73 247.82 C 334.01 245.22 337.69 241.73 341.99 239.20 Z" fill="#2ca9e0" opacity="1.00" stroke="#2ca9e0" stroke-width="0.25"/>
<path d="M 427.75 247.98 C 430.11 251.45 429.47 256.01 430.21 259.98 C 430.86 275.78 430.93 291.97 426.28 307.24 C 420.05 330.45 407.73 351.86 391.57 369.57 C 366.78 394.81 334.69 412.44 300.58 421.46 C 288.91 424.15 277.06 426.93 265.00 426.62 C 255.64 426.55 246.28 426.76 236.93 426.55 C 216.28 424.28 195.64 420.01 176.65 411.34 C 165.42 406.29 153.96 401.30 143.93 394.05 C 149.47 391.27 155.48 389.67 161.17 387.25 C 175.93 381.69 189.65 373.85 203.72 366.81 C 207.94 364.80 211.63 361.70 216.09 360.24 C 216.80 360.11 218.21 359.83 218.92 359.69 C 204.00 369.94 187.26 377.04 170.93 384.69 C 168.56 385.67 166.17 386.64 163.80 387.66 C 158.23 390.11 152.34 391.77 146.77 394.23 C 148.70 395.51 150.65 396.77 152.71 397.86 C 168.76 407.04 185.70 414.99 203.74 419.35 C 219.23 422.90 235.05 425.76 251.01 425.32 C 260.08 425.13 269.23 425.71 278.24 424.30 C 287.70 422.58 297.30 421.51 306.48 418.54 C 317.21 415.63 327.44 411.24 337.43 406.44 C 354.43 398.41 370.21 387.78 383.98 374.98 C 392.93 367.16 400.13 357.58 406.77 347.79 C 415.02 334.34 422.09 319.96 425.52 304.47 C 429.52 291.01 428.46 276.86 428.59 263.01 C 428.61 257.99 428.11 252.99 427.75 247.98 Z" fill="#8396b4" opacity="1.00" stroke="#8396b4" stroke-width="0.25"/>
<path d="M 311.96 289.94 C 324.33 278.74 337.02 267.86 348.95 256.19 C 357.86 264.67 367.42 272.49 377.66 279.34 C 386.04 285.91 396.24 289.28 405.55 294.23 C 408.06 295.79 412.61 296.30 412.70 299.98 C 411.31 305.92 407.17 310.76 403.48 315.45 C 396.08 324.38 384.93 328.60 375.13 334.22 C 368.98 338.04 362.10 340.41 355.53 343.38 C 349.39 346.03 342.75 347.20 336.49 349.50 C 326.95 353.12 316.60 353.18 306.68 355.06 C 301.74 356.39 296.75 357.61 291.62 357.86 C 285.05 358.65 278.37 357.79 271.86 359.10 C 261.73 361.37 251.24 360.42 241.01 359.42 C 234.07 358.82 227.07 360.34 220.16 359.00 C 241.13 347.34 260.36 332.93 279.35 318.36 C 281.82 316.49 284.02 314.32 286.12 312.06 C 289.60 308.52 293.88 305.89 297.45 302.45 C 302.02 297.97 307.24 294.25 311.96 289.94 Z" fill="#036fc2" opacity="1.00" stroke="#036fc2" stroke-width="0.25"/>
<path d="M 261.01 282.08 C 271.78 277.60 281.45 270.97 291.77 265.64 C 290.92 267.09 289.76 268.35 288.21 269.09 C 266.09 281.56 243.76 293.69 221.00 304.97 C 206.94 311.90 192.82 318.83 178.01 324.04 C 163.78 329.41 149.35 334.28 134.77 338.63 C 119.72 342.68 104.65 347.42 88.99 348.31 C 81.89 348.85 74.98 346.71 67.93 346.38 C 65.38 346.26 62.65 346.05 60.76 344.11 C 61.26 344.19 62.26 344.34 62.76 344.42 C 67.46 345.10 72.21 345.44 76.93 346.10 C 86.90 347.68 97.26 346.97 106.93 344.08 C 113.38 341.03 120.67 341.50 127.37 339.36 C 148.91 333.33 170.04 325.90 190.84 317.69 C 204.51 311.59 218.08 305.24 231.27 298.15 C 241.32 293.06 251.51 288.14 261.01 282.08 Z" fill="#84bed2" opacity="1.00" stroke="#84bed2" stroke-width="0.25"/>
<path d="M 168.03 271.14 C 170.15 270.43 172.40 270.26 174.62 270.15 C 176.27 271.92 177.88 274.21 180.52 274.44 C 185.01 275.06 189.56 274.48 194.03 273.98 C 196.40 273.81 199.05 272.97 201.15 274.51 C 190.14 279.79 178.21 282.83 166.59 286.46 C 149.32 291.09 131.68 294.15 113.97 296.65 C 114.46 293.96 116.47 292.07 118.74 290.76 C 122.02 288.56 126.58 290.17 129.69 287.61 C 130.57 285.19 127.36 283.60 127.53 281.37 C 129.57 277.25 134.80 278.59 138.49 277.72 C 148.39 275.81 158.44 274.37 168.03 271.14 Z" fill="#1c96d6" opacity="1.00" stroke="#1c96d6" stroke-width="0.25"/>
<path d="M 239.08 280.17 C 244.09 278.11 248.76 275.05 254.17 274.11 C 251.38 275.69 248.68 277.45 245.80 278.87 C 239.08 281.27 232.81 284.74 226.20 287.40 C 215.00 292.26 203.67 296.82 192.27 301.19 C 178.29 306.68 163.71 310.44 149.56 315.45 C 138.46 318.50 127.39 321.81 116.06 323.89 C 109.29 324.65 102.47 325.47 95.65 325.32 L 94.73 324.87 C 105.57 323.50 116.65 323.31 127.21 320.21 C 137.47 317.17 148.09 315.27 158.00 311.11 C 166.23 308.88 174.32 306.16 182.43 303.51 C 201.54 296.30 220.58 288.86 239.08 280.17 Z" fill="#8ec5e3" opacity="1.00" stroke="#8ec5e3" stroke-width="0.25"/>
<path d="M 57.80 281.22 C 59.86 279.65 61.91 278.07 63.96 276.50 C 66.66 277.03 69.39 277.46 72.13 277.78 C 77.48 278.26 82.61 280.21 88.00 280.31 C 93.44 280.45 98.89 280.01 104.33 280.30 C 96.25 281.37 88.09 280.61 79.99 281.22 C 81.90 286.13 83.07 291.31 83.34 296.57 C 84.29 297.06 85.24 297.55 86.20 298.02 C 80.60 298.26 74.44 299.44 69.23 296.83 C 66.15 294.97 62.78 293.65 59.28 292.84 C 60.11 291.84 60.95 290.84 61.78 289.84 C 60.13 287.12 58.87 284.21 57.80 281.22 Z" fill="#38b7e9" opacity="1.00" stroke="#38b7e9" stroke-width="0.25"/>
<path d="M 245.80 278.87 C 252.19 276.61 259.05 276.18 265.60 277.98 C 264.10 279.37 262.59 280.77 261.01 282.08 C 251.51 288.14 241.32 293.06 231.27 298.15 C 230.07 294.37 229.39 290.11 226.20 287.40 C 232.81 284.74 239.08 281.27 245.80 278.87 Z" fill="#23a5de" opacity="1.00" stroke="#23a5de" stroke-width="0.25"/>
<path d="M 104.33 280.30 C 105.94 280.16 107.55 280.06 109.17 279.94 C 110.20 286.29 105.64 291.43 101.98 296.03 C 104.22 296.16 106.47 296.27 108.71 296.37 C 108.71 296.69 108.72 297.33 108.72 297.65 C 101.22 297.83 93.69 298.59 86.20 298.02 C 85.24 297.55 84.29 297.06 83.34 296.57 C 83.07 291.31 81.90 286.13 79.99 281.22 C 88.09 280.61 96.25 281.37 104.33 280.30 Z" fill="#2ca6e0" opacity="1.00" stroke="#2ca6e0" stroke-width="0.25"/>
<path d="M 192.27 301.19 C 203.67 296.82 215.00 292.26 226.20 287.40 C 229.39 290.11 230.07 294.37 231.27 298.15 C 218.08 305.24 204.51 311.59 190.84 317.69 C 170.04 325.90 148.91 333.33 127.37 339.36 C 120.67 341.50 113.38 341.03 106.93 344.08 C 104.98 344.00 102.09 345.30 101.06 342.98 C 99.74 340.37 99.64 337.39 99.19 334.56 C 106.14 333.10 109.31 325.69 116.06 323.89 C 127.39 321.81 138.46 318.50 149.56 315.45 C 163.71 310.44 178.29 306.68 192.27 301.19 Z" fill="#0f84cd" opacity="1.00" stroke="#0f84cd" stroke-width="0.25"/>
<path d="M 256.10 294.17 C 259.78 292.17 262.82 288.89 267.05 288.02 C 264.69 289.91 262.36 291.85 259.83 293.52 C 239.46 305.68 218.59 317.11 196.76 326.47 C 188.15 330.40 179.39 334.01 170.59 337.53 C 160.76 341.33 150.66 344.35 140.71 347.80 C 132.70 350.63 124.22 351.67 116.12 354.19 C 107.77 356.75 99.08 357.92 90.71 360.40 C 82.19 361.17 73.61 361.70 65.13 360.21 C 65.44 361.45 65.75 362.70 66.10 363.94 C 63.67 362.67 62.11 360.40 61.50 357.76 C 67.72 357.73 73.81 359.76 80.05 359.09 C 84.04 358.65 88.05 358.50 92.05 358.13 C 103.94 356.55 115.34 352.63 127.03 350.08 C 149.56 344.29 171.44 336.16 192.75 326.87 C 214.70 317.64 235.42 305.87 256.10 294.17 Z" fill="#84a6cd" opacity="1.00" stroke="#84a6cd" stroke-width="0.25"/>
<path d="M 196.76 326.47 C 218.59 317.11 239.46 305.68 259.83 293.52 C 265.03 295.56 270.16 297.80 275.03 300.58 C 270.34 306.29 263.45 309.53 257.39 313.54 C 240.57 325.80 222.41 336.05 204.33 346.31 C 203.96 345.49 203.57 344.70 203.19 343.90 C 201.86 342.79 199.09 342.33 199.46 340.15 C 199.81 335.39 197.93 330.97 196.76 326.47 Z" fill="#0979c6" opacity="1.00" stroke="#0979c6" stroke-width="0.25"/>
<path d="M 273.24 321.26 C 277.50 318.15 281.25 314.25 286.12 312.06 C 284.02 314.32 281.82 316.49 279.35 318.36 C 260.36 332.93 241.13 347.34 220.16 359.00 C 219.85 359.17 219.23 359.52 218.92 359.69 C 218.21 359.83 216.80 360.11 216.09 360.24 C 217.54 358.97 219.06 357.78 220.71 356.79 C 239.17 346.43 256.49 334.16 273.24 321.26 Z" fill="#5794be" opacity="1.00" stroke="#5794be" stroke-width="0.25"/>
<path d="M 403.01 319.97 C 405.90 317.37 408.94 314.88 411.29 311.75 C 409.47 316.32 409.31 321.32 408.10 326.06 C 407.30 329.20 405.35 331.86 403.41 334.40 C 398.45 340.85 393.81 347.54 389.45 354.41 C 387.53 357.44 385.00 360.00 382.37 362.41 C 378.77 365.38 378.21 370.61 374.37 373.38 C 369.87 376.65 367.91 382.19 363.49 385.53 C 360.44 387.77 357.95 391.41 353.91 391.74 C 342.68 392.75 332.02 396.73 320.88 398.32 C 313.85 399.15 307.63 402.81 301.08 405.22 C 294.50 408.83 287.64 411.95 280.51 414.33 C 272.35 416.72 263.85 414.42 255.57 415.48 C 248.41 416.36 241.19 415.77 234.00 416.00 C 230.50 416.09 226.75 416.27 223.74 414.18 C 219.80 411.52 214.87 412.24 210.42 411.43 C 205.01 410.67 200.05 408.24 195.29 405.68 C 192.44 404.31 189.41 402.51 186.12 403.10 C 181.79 403.58 177.54 405.70 173.14 404.77 C 167.66 403.50 162.61 400.93 157.64 398.38 C 156.14 397.45 154.36 397.72 152.71 397.86 C 150.65 396.77 148.70 395.51 146.77 394.23 C 152.34 391.77 158.23 390.11 163.80 387.66 C 165.43 388.85 166.78 391.07 169.05 390.90 C 173.62 390.72 178.19 389.33 182.76 390.32 C 191.11 392.41 199.74 392.95 208.28 393.75 C 216.37 393.40 223.95 396.94 232.00 396.99 C 237.40 396.95 242.58 398.80 247.96 399.00 C 251.95 399.13 255.93 399.47 259.92 399.63 C 264.26 399.82 268.16 397.14 272.51 397.45 C 277.96 397.73 283.45 398.70 288.89 397.78 C 292.72 396.52 295.68 393.18 299.86 392.81 C 306.40 392.05 312.96 391.31 319.29 389.40 C 325.23 387.48 331.53 387.57 337.59 386.34 C 341.66 384.60 346.00 383.88 350.35 383.30 C 353.71 379.68 356.09 375.18 359.47 371.52 C 364.88 362.95 374.58 358.67 381.33 351.38 C 385.20 345.62 389.39 339.85 391.14 333.02 C 391.87 329.53 395.06 327.66 397.65 325.63 C 399.76 324.07 401.36 321.98 403.01 319.97 Z" fill="#013284" opacity="1.00" stroke="#013284" stroke-width="0.25"/>
<path d="M 42.29 326.48 C 41.04 322.88 37.78 318.67 40.67 315.04 C 45.16 317.57 48.69 321.69 53.68 323.33 C 61.06 326.43 69.17 326.25 76.97 327.34 C 81.34 327.97 86.12 326.06 90.20 328.17 C 81.57 328.19 72.92 328.10 64.31 328.58 C 60.44 328.45 58.89 332.27 57.28 335.08 C 59.66 337.84 61.61 340.95 62.76 344.42 C 62.26 344.34 61.26 344.19 60.76 344.11 C 52.33 341.57 45.28 334.77 42.29 326.48 Z" fill="#36b1e3" opacity="1.00" stroke="#36b1e3" stroke-width="0.25"/>
<path d="M 380.43 334.38 C 387.42 328.78 395.44 324.70 403.01 319.97 C 401.36 321.98 399.76 324.07 397.65 325.63 C 395.06 327.66 391.87 329.53 391.14 333.02 C 389.39 339.85 385.20 345.62 381.33 351.38 C 374.58 358.67 364.88 362.95 359.47 371.52 C 356.09 375.18 353.71 379.68 350.35 383.30 C 346.00 383.88 341.66 384.60 337.59 386.34 C 331.53 387.57 325.23 387.48 319.29 389.40 C 312.96 391.31 306.40 392.05 299.86 392.81 C 295.68 393.18 292.72 396.52 288.89 397.78 C 283.45 398.70 277.96 397.73 272.51 397.45 C 268.16 397.14 264.26 399.82 259.92 399.63 C 255.93 399.47 251.95 399.13 247.96 399.00 C 242.58 398.80 237.40 396.95 232.00 396.99 C 223.95 396.94 216.37 393.40 208.28 393.75 C 199.74 392.95 191.11 392.41 182.76 390.32 C 178.19 389.33 173.62 390.72 169.05 390.90 C 166.78 391.07 165.43 388.85 163.80 387.66 C 166.17 386.64 168.56 385.67 170.93 384.69 C 177.18 386.21 183.47 387.95 189.96 387.96 C 196.86 387.89 203.72 389.28 210.62 388.56 C 216.81 387.77 222.75 390.70 228.93 389.84 C 234.25 389.23 239.60 388.99 244.95 388.81 C 250.88 388.61 256.71 386.80 262.67 387.42 C 265.36 387.60 268.06 388.16 270.76 387.86 C 273.80 386.41 275.57 383.24 278.51 381.65 C 283.22 380.46 288.35 380.98 292.79 378.73 C 297.48 376.33 303.07 374.62 305.88 369.79 C 308.19 369.20 310.52 368.66 312.85 368.13 C 314.01 365.70 314.95 362.88 317.34 361.36 C 321.77 358.38 327.25 357.93 332.42 357.50 C 333.17 356.27 333.93 355.06 334.69 353.85 C 343.23 353.28 350.15 347.78 358.07 345.20 C 365.97 342.63 373.39 338.75 380.43 334.38 Z" fill="#023a90" opacity="1.00" stroke="#023a90" stroke-width="0.25"/>
<path d="M 95.65 325.32 C 102.47 325.47 109.29 324.65 116.06 323.89 C 109.31 325.69 106.14 333.10 99.19 334.56 C 99.64 337.39 99.74 340.37 101.06 342.98 C 102.09 345.30 104.98 344.00 106.93 344.08 C 97.26 346.97 86.90 347.68 76.93 346.10 C 72.21 345.44 67.46 345.10 62.76 344.42 C 61.61 340.95 59.66 337.84 57.28 335.08 C 58.89 332.27 60.44 328.45 64.31 328.58 C 72.92 328.10 81.57 328.19 90.20 328.17 C 90.89 328.22 92.29 328.32 92.99 328.36 C 93.61 327.34 94.23 326.32 94.84 325.29 L 95.65 325.32 Z" fill="#249bd9" opacity="1.00" stroke="#249bd9" stroke-width="0.25"/>
<path d="M 170.59 337.53 C 179.39 334.01 188.15 330.40 196.76 326.47 C 197.93 330.97 199.81 335.39 199.46 340.15 C 199.09 342.33 201.86 342.79 203.19 343.90 C 203.57 344.70 203.96 345.49 204.33 346.31 C 193.37 352.16 182.74 358.66 171.29 363.54 C 167.26 365.23 163.48 367.55 159.27 368.78 C 145.16 367.52 131.26 363.60 117.00 363.99 C 108.11 364.14 99.28 362.70 90.71 360.40 C 99.08 357.92 107.77 356.75 116.12 354.19 C 124.22 351.67 132.70 350.63 140.71 347.80 C 150.66 344.35 160.76 341.33 170.59 337.53 Z" fill="#0565b7" opacity="1.00" stroke="#0565b7" stroke-width="0.25"/>
<path d="M 65.13 360.21 C 73.61 361.70 82.19 361.17 90.71 360.40 C 99.28 362.70 108.11 364.14 117.00 363.99 C 131.26 363.60 145.16 367.52 159.27 368.78 L 160.12 368.76 C 145.12 374.45 130.05 380.59 114.00 382.48 C 108.99 382.57 103.98 382.86 98.98 382.51 C 92.04 381.57 85.54 378.67 79.38 375.48 C 74.81 371.84 69.63 368.71 66.10 363.94 C 65.75 362.70 65.44 361.45 65.13 360.21 Z" fill="#0450a2" opacity="1.00" stroke="#0450a2" stroke-width="0.25"/>
</svg>