<svg xmlns="http://www.w3.org/2000/svg" viewBox="0 0 512 539.25812" fill="none" role="img" aria-label="Jules">
  <!-- Jules logo (2025); source: https://i.logos-download.com/114346/31976-8d066c7e08f445f44109740eea2258a1.svg/Jules_Logo_2025.svg -->
  <path
    shape-rendering="geometricPrecision"
    fill="#642CC2"
    d="m 487.41527,436.49819 c -14.34936,0 -25.45854,11.57206 -25.45854,25.45854 0,14.34936 -11.57206,25.45854 -25.45854,25.45854 -13.88647,0 -26.3843,-11.10918 -26.3843,-24.99566 V 331.88675 c 3.24018,-6.48036 5.09171,-13.42359 5.09171,-21.2926 V 161.08311 C 415.2056,72.209669 342.99593,0 254.58537,0 166.17482,0 93.502264,72.209669 93.502264,161.08311 v 149.51104 c 0,10.18342 3.240177,19.90395 8.794766,27.77295 v 124.05251 c 0,14.34936 -11.572061,25.45854 -25.921418,25.45854 -14.349358,0 -25.458538,-11.57206 -25.458538,-25.45854 0,-13.88647 -11.572062,-25.45853 -25.458537,-25.45853 C 11.10918,436.96108 0,448.53314 0,462.41961 c 0,40.73366 31.938892,73.59832 71.746787,76.37561 1.85153,0.46289 3.240177,0.46289 5.091707,0.46289 1.85153,0 3.70306,0 5.091708,-0.46289 39.807898,-2.77729 71.746788,-35.64195 71.746788,-76.37561 V 359.6597 c 0,0 -1.38865,-21.75548 17.12665,-21.75548 18.5153,0 17.12665,21.75548 17.12665,21.75548 v 101.83415 c 0,14.34935 11.57207,25.45853 25.45854,25.45853 13.88647,0 25.45854,-11.57206 25.45854,-25.45853 V 359.6597 c 0,0 -3.70306,-21.75548 17.12665,-21.75548 20.82971,0 17.12665,21.75548 17.12665,21.75548 v 101.83415 c 0,14.34935 11.57206,25.45853 25.45854,25.45853 14.34936,0 25.45854,-11.57206 25.45854,-25.45853 V 359.6597 c 0,0 -1.38865,-21.75548 17.12665,-21.75548 18.5153,0 17.12665,21.75548 17.12665,21.75548 v 102.75991 c 0,40.73366 31.93889,73.59832 71.74679,76.37561 1.85153,0.46289 3.24018,0.46289 5.09171,0.46289 1.85153,0 3.70305,0 5.0917,-0.46289 40.27078,-2.77729 71.74679,-35.64195 71.74679,-76.37561 0.92576,-14.34936 -10.6463,-25.92142 -24.53277,-25.92142 M 170.34076,291.15309 c -14.34936,0 -25.45854,-14.34936 -25.45854,-31.93889 0,-17.58954 11.57206,-31.9389 25.45854,-31.9389 13.88647,0 25.45854,14.34936 25.45854,31.9389 0.46288,17.58953 -11.10918,31.93889 -25.45854,31.93889 m 171.26652,0 c -14.34936,0 -25.45854,-14.34936 -25.45854,-31.93889 0,-17.58954 11.57207,-31.9389 25.45854,-31.9389 13.88648,0 25.45854,14.34936 25.45854,31.9389 0.46288,17.58953 -11.10918,31.93889 -25.45854,31.93889"
  />
</svg>
